<?xml version="1.0" encoding="utf-8"?>
<!-- Generator: Adobe Illustrator 19.0.0, SVG Export Plug-In . SVG Version: 6.00 Build 0)  -->
<svg version="1.1" id="Layer_1" xmlns="http://www.w3.org/2000/svg" xmlns:xlink="http://www.w3.org/1999/xlink" x="0px" y="0px"
	 viewBox="0 0 278 101.1" style="enable-background:new 0 0 278 101.1;" xml:space="preserve">
<style type="text/css">
	.st0{display:none;fill:#13DBEA;}
	.st1{display:none;}
	.st2{display:inline;fill:#FF261C;}
	.st3{display:inline;fill:#13DBEA;}
	.st4{fill:#13DBEA;}
	.st5{fill:#FF261C;}
	.st6{font-family:'CovertOps';}
	.st7{font-size:160.9578px;}
</style>
<path class="st0" d="M240.9,20c0,8.6,0.1,17.2,0.1,25.8c5.5,0,11-0.1,16.6-0.1c0-12.9-0.1-25.9-0.1-38.8c-21.5-11-42.9-8-51.3,3.5
	c-1.5,2.1-4.9,7.7-3.9,17.9c0,15.6,0,31.2,0,46.8c0,4.3,0.6,13.5,7.1,20.5c10,10.7,30.1,12,47.7,0.6c0.1-13,0.2-26.1,0.2-39.1
	c-5.5,0.1-11.1,0.1-16.6,0.2c0,8.5,0,17,0,25.4c-7.2,0-14.3,0-21.5,0c0.6-2,1.3-4,1.9-5.9c0-14.4,0.1-28.9,0.1-43.3
	c-3.4,0-6.8,0-10.2,0c0-1,0-2.1,0-3.1c3.4-3.4,6.8-6.8,10.2-10.3C227.9,20,234.4,20,240.9,20z"/>
<g class="st1">
	<path class="st2" d="M195.3,41.6c9.1,3.9,18.2,7.8,27.2,11.7c0.1-6.3,0.2-12.7,0.3-19c-3.7-0.1-7.4-0.2-11.1-0.3c0-1.4,0-2.7,0-4.1
		c3.2-3,6.4-5.9,9.6-8.9c6.6,0,13.2,0,19.8,0c0.1,2.5,0.1,5.1,0.2,7.6c0,4.7,0,9.3,0,14c8.1,0,16.2-0.1,24.3-0.1
		c0-7.3,0-14.5,0-21.8c-1.1-3.2-3.1-7.7-7.2-11.5c-3.4-3.1-7-4.7-9-5.7c-1.6-0.7-3.3-1.4-5.2-1.9c-8.8-2.5-16.5-1.4-19.1-1
		c-13.1,2-20.5,9-22.1,10.6c-4.9,4.8-6.7,9.7-7.4,12.4C195.4,29.6,195.3,35.6,195.3,41.6z"/>
	<path class="st3" d="M195,48.8c9.2,3.7,18.3,7.4,27.5,11.1c0,4.8,0,9.7,0,14.5c-0.8,2.6-1.7,5.3-2.5,7.9c7.3,0,14.5,0,21.8,0
		c0-3.5,0.1-6.9,0.1-10.4c0-4.2-0.1-8.4-0.1-12.7c7.9,0,15.8,0,23.7,0c0,7.5,0,15,0,22.5c-1.8,5-4.6,8.1-6.2,9.6
		c-3.2,3-6.6,4.5-9.2,5.7c-1.6,0.7-3.4,1.4-5.3,1.9c-9,2.5-16.8,1.4-19.5,1c-13.4-2-21-9-22.6-10.6c-5-4.8-6.8-9.7-7.5-12.4
		C195,67.5,195,58.2,195,48.8z"/>
</g>
<g class="st1">
	<path class="st2" d="M194.7,40.7c9.1,3.8,18.2,7.6,27.3,11.5c0.1-6.2,0.2-12.4,0.3-18.6c-3.7-0.1-7.4-0.2-11.2-0.3c0-1.3,0-2.7,0-4
		c3.2-2.9,6.4-5.8,9.6-8.7c6.6,0,13.2,0,19.8,0c0.1,2.5,0.1,5,0.2,7.4c0,4.6,0,9.1,0,13.7c8.1,0,16.2-0.1,24.3-0.1
		c0-7.1,0-14.3,0-21.4c-1.1-3.1-3.1-7.5-7.3-11.3c-3.4-3-7-4.7-9-5.6c-1.6-0.7-3.3-1.3-5.2-1.9c-8.8-2.5-16.5-1.4-19.1-1
		c-13.1,2-20.6,8.8-22.2,10.4c-4.9,4.7-6.7,9.5-7.4,12.2C194.8,29,194.7,34.9,194.7,40.7z"/>
	<path class="st3" d="M194.7,50.3c9,3.6,18,7.2,27,10.8c0,4.8,0,9.5,0,14.3c-0.8,2.6-1.7,5.2-2.5,7.7c7.1,0,14.3,0,21.4,0
		c0-3.4,0.1-6.8,0.1-10.2c0-4.1-0.1-8.3-0.1-12.4c7.7,0,15.5,0,23.2,0c0,7.3,0,14.7,0,22c-1.8,4.9-4.5,7.9-6.1,9.4
		c-3.1,3-6.5,4.4-9,5.6c-1.6,0.7-3.3,1.3-5.2,1.9c-8.8,2.5-16.5,1.4-19.1,1c-13.1-2-20.6-8.8-22.2-10.4c-4.9-4.7-6.7-9.5-7.4-12.2
		C194.7,68.7,194.7,59.5,194.7,50.3z"/>
</g>
<g class="st1">
	<path class="st2" d="M194.7,52.2c9.1,0,18.2,0,27.3,0c0.1-6.2,0.2-12.4,0.3-18.6c-3.7-0.1-7.4-0.2-11.2-0.3c0-1.3,0-2.7,0-4
		c3.2-2.9,6.4-5.8,9.6-8.7c6.6,0,13.2,0,19.8,0c0.1,2.5,0.1,5,0.2,7.4c0,4.6,0,9.1,0,13.7c8.8-6.5,17.7-13.1,26.5-19.6
		c-0.2-1.4-0.7-3.4-2-5.7c-0.5-0.9-2.2-3.7-7.4-7.4c-3.6-2.7-7.7-5.6-14.3-7.4c-8.8-2.5-16.5-1.4-19.1-1c-13.1,2-20.6,8.8-22.2,10.4
		c-4.9,4.7-6.7,9.5-7.4,12.2C194.8,32.8,194.7,42.5,194.7,52.2z"/>
	<path class="st3" d="M194.7,61.2c9,0,18,0,27,0c0,4.8,0,9.5,0,14.3c-0.8,2.6-1.7,5.2-2.5,7.7c7.1,0,14.3,0,21.4,0
		c0-3.4,0.1-6.8,0.1-10.2c0-4.1-0.1-8.3-0.1-12.4c8.9,6.1,17.7,12.2,26.6,18.3c-0.2,1.4-0.7,3.4-2,5.7c-0.5,0.9-2.2,3.7-7.4,7.4
		c-3.6,2.7-7.7,5.6-14.3,7.4c-8.8,2.5-16.5,1.4-19.1,1c-13.1-2-20.6-8.8-22.2-10.4c-4.9-4.7-6.7-9.5-7.4-12.2
		C194.7,72.3,194.7,66.7,194.7,61.2z"/>
</g>
<g class="st1">
	<path class="st2" d="M194.7,52.2c9.1,0,18.2,0,27.3,0c0-8.5,0.1-16.9,0.1-25.4c0.2-0.6,1-2.5,3.6-3.9c2.9-1.6,6-1.3,6.9-1.2
		c0.6,0.1,4.3,0.5,6.6,3.1c1.1,1.2,1.4,2.4,1.5,3.1c0,4.6,0,9.1,0,13.7c8.8-6.5,17.7-13.1,26.5-19.6c-0.2-1.4-0.7-3.4-2-5.7
		c-0.5-0.9-2.2-3.7-7.4-7.4c-3.6-2.7-7.7-5.6-14.3-7.4c-8.8-2.5-16.5-1.4-19.1-1c-13.1,2-20.6,8.8-22.2,10.4
		c-4.9,4.7-6.7,9.5-7.4,12.2C194.8,32.8,194.7,42.5,194.7,52.2z"/>
	<path class="st3" d="M194.7,61.2c9.1,0,18.2,0,27.3,0c0,4.3,0,8.6,0.1,13c0.2,0.6,1,2.5,3.6,3.9c2.9,1.6,6,1.3,6.9,1.2
		c0.6-0.1,4.3-0.5,6.6-3.1c1.1-1.2,1.4-2.4,1.5-3.1c0-4.1-0.1-8.3-0.1-12.4c8.9,6.1,17.7,12.2,26.6,18.3c-0.2,1.4-0.7,3.4-2,5.7
		c-0.5,0.9-2.2,3.7-7.4,7.4c-3.6,2.7-7.7,5.6-14.3,7.4c-8.8,2.5-16.5,1.4-19.1,1c-13.1-2-20.6-8.8-22.2-10.4
		c-4.9-4.7-6.7-9.5-7.4-12.2C194.7,72.3,194.7,66.7,194.7,61.2z"/>
</g>
<g id="A" class="st1">
	<path class="st3" d="M157.4,36.5c-6.4,0-12.9,0-19.3,0c-1.5-3.1-3-6.1-4.6-9.2c-4.3,11.4-8.5,22.9-12.8,34.3
		c2.4,6.2,4.7,12.3,7.1,18.5c-5,0-10,0.1-15,0.1c-2.7,6.7-5.4,13.4-8.1,20.1c-6.4,0.1-12.8,0.2-19.2,0.3c13-33.3,26-66.6,39-99.9
		c5.5,0,11-0.1,16.6-0.1C146.6,12.5,152,24.5,157.4,36.5z"/>
	<path class="st2" d="M182,100.5c-6.8,0-13.6-0.1-20.5-0.1c-2.5-6.8-5-13.6-7.5-20.4c-6.1,0-12.3,0-18.4,0
		c-2.7-6.2-5.4-12.4-8.1-18.7c6.6,0,12.7,0,19.3,0c-2.4-6.3-4.6-11.9-7-18.2c6.7-0.1,13.4-0.1,20.1-0.2c2.7,6,5.4,12,8.1,18
		c5.3,0,10.6,0,16,0c2.7,6.3,5.5,12.6,8.2,18.9c-6,0-11.6,0-17.9,0C176.9,86.9,179.3,93.4,182,100.5z"/>
</g>
<g id="A_1_" class="st1">
	<path class="st3" d="M175.4,36c-6.4,0-12.9,0-19.3,0c-1.5-3.1-3-6.1-4.6-9.2c-4.3,11.4-8.5,22.9-12.8,34.3
		c2.4,6.2,4.7,12.3,7.1,18.5c-5,0-10,0.1-15,0.1c-2.7,6.7-5.4,13.4-8.1,20.1c-6.4,0.1-12.8,0.2-19.2,0.3c13-33.3,26-66.6,39-99.9
		c5.5,0,11-0.1,16.6-0.1C164.5,12,169.9,24,175.4,36z"/>
	<path class="st2" d="M200,100c-6.8,0-13.6-0.1-20.5-0.1c-2.5-6.8-5-13.6-7.5-20.4c-6.1,0-12.3,0-18.4,0c-2.7-6.2-5.4-12.4-8.1-18.7
		c6.6,0,12.7,0,19.3,0c-2.4-6.3-4.6-11.9-7-18.2c6.7-0.1,13.4-0.1,20.1-0.2c2.7,6,5.4,12,8.1,18c5.3,0,10.6,0,16,0
		c2.7,6.3,5.5,12.6,8.2,18.9c-6,0-11.6,0-17.9,0C194.9,86.4,197.3,92.9,200,100z"/>
</g>
<g id="R">
	<path class="st4" d="M0,43.3c12.1,0,24.2,0,36.3,0c19,19.3,37.9,38.5,56.9,57.8c-12.1,0-24.1,0-36.2,0C38,81.8,19,62.5,0,43.3z"/>
	<path class="st5" d="M0.5,0c8.7,8.7,17.3,17.3,26,26c11.9-0.1,23.9-0.2,35.8-0.2c0.7,0.2,3.1,1,4.8,3.4c1.9,2.8,1.6,5.7,1.4,6.5
		c-0.1,0.6-0.7,4.1-3.8,6.2c-1.5,1-3,1.3-3.8,1.4c-5.6,0-11.2,0-16.8,0c8,8.3,16,16.7,24,25c1.7-0.2,4.2-0.7,7-1.9
		c1.1-0.5,4.5-2.1,9.1-7c3.3-3.4,6.9-7.2,9.1-13.5c3-8.3,1.7-15.6,1.2-18C92,15.5,83.6,8.5,81.7,7C75.9,2.4,70,0.7,66.8,0
		C44.7,0,22.6,0,0.5,0z"/>
</g>
<text transform="matrix(1.0922 -1.092160e-004 1.000000e-004 1 197.1146 100.9924)" class="st0 st6 st7">C</text>
<g class="st1">
	<path class="st3" d="M150,0.4c-11.6,0-23.1,0-34.7,0C102.1,34,89,67.5,75.8,101c11.2,0,22.3,0,33.5,0C122.9,67.5,136.4,34,150,0.4z
		"/>
	<path class="st3" d="M121.8,0.1c11.9,0.1,23.8,0.2,35.6,0.3c4.8,12.2,9.7,24.5,14.5,36.7c-11.3,0.1-22.5,0.2-33.8,0.3
		C132.7,25,127.2,12.6,121.8,0.1z"/>
	<path class="st2" d="M139.9,43.3c11.2,0,22.3,0,33.5,0c7.7,19.2,15.4,38.4,23,57.5c-11.2,0-22.3,0-33.5,0
		C155.3,81.7,147.6,62.5,139.9,43.3z"/>
	<path class="st2" d="M131.5,57.1c4.2,10.4,8.3,20.7,12.5,31.1c19.7,0,39.3,0,59,0c-4.2-10.4-8.3-20.7-12.5-31.1
		C170.8,57.1,151.1,57.1,131.5,57.1z"/>
	<path class="st3" d="M92.9,57.2c-4.1,10.6-8.3,21.2-12.4,31.8c19.7,0,39.3,0,59,0c-4.2-10.4-8.3-20.7-12.5-31.1
		C115.6,57.6,104.3,57.4,92.9,57.2z"/>
</g>
<g>
	<path class="st4" d="M238.6,0.7c0,7.2,0,14.4,0,21.6c-2.3-0.1-4.6-0.1-7-0.2c-1.9,3.5-3.8,7.1-5.6,10.6c1.9,0,3.8,0,5.6,0
		c0,15.6,0,31.1,0,46.7c2.4,0,4.8,0,7.1,0c0,7.1,0,14.3,0,21.4c-8,0.1-16,0.1-23.9,0.2c-1.4-0.7-3.4-1.8-5.4-3.6
		c-2.1-1.9-3.5-4-4.3-5.4c-0.1-27.3-0.1-54.7-0.2-82c0.7-1.4,2-3.6,4.1-5.7c2-1.9,3.9-3,5.3-3.6C222.5,0.8,230.6,0.7,238.6,0.7z"/>
	<path class="st5" d="M244.2,101c0-7.1,0-14.2,0-21.4c2.4,0,4.8,0,7.1-0.1c0-4.9,0-9.8,0-14.6c8.9,0,17.7,0,26.6,0
		c0,8.8,0,17.6,0,26.4c-0.6,1.4-1.7,3.5-3.8,5.5c-2.1,2.1-4.3,3.3-5.7,3.9C260.4,100.9,252.3,100.9,244.2,101z"/>
	<path class="st5" d="M244.1,0.7c0,7.2,0,14.4,0,21.6c2.4,0,4.8,0,7.1,0c0,4.8,0,9.6,0,14.5c8.9,0,17.7,0,26.6,0
		c0-8.8,0-17.6,0-26.4c-0.5-1.4-1.7-3.7-3.9-5.8c-2.1-2-4.2-3.1-5.6-3.6C260.3,0.8,252.2,0.7,244.1,0.7z"/>
</g>
<g>
	<path class="st4" d="M110.1,101c-9,0-18.1,0-27.1,0.1c13.5-33.7,27-67.3,40.4-101c9.4,0,18.8,0,28.3,0
		C137.8,33.7,123.9,67.4,110.1,101z"/>
</g>
<g>
	<path class="st5" d="M168,101c9.1,0,18.2,0,27.3,0c-7.6-19-15.1-38-22.7-57c-8.9,0-17.8,0-26.7,0C153.3,63,160.7,82,168,101z"/>
</g>
<g>
	<path class="st4" d="M143.9,38.7c9,0,18-0.1,27-0.1c-5.2-12.9-10.4-25.7-15.6-38.6c-9.1,0-18.2,0-27.3,0
		C133.4,12.9,138.7,25.8,143.9,38.7z"/>
</g>
<g>
	<path class="st5" d="M147.7,87.7c-3.5-8.7-7.1-17.4-10.6-26.1c18.6,0,37.2,0,55.8,0c3.7,8.7,7.3,17.4,11,26.1
		C185.2,87.6,166.5,87.7,147.7,87.7z"/>
</g>
<g>
	<path class="st4" d="M96.3,88c3.2-8.8,6.4-17.6,9.5-26.4c8.4,0.1,16.8,0.2,25.2,0.2c3.5,8.7,7.1,17.5,10.6,26.2
		C126.5,88.1,111.4,88,96.3,88z"/>
</g>
</svg>
