<svg xmlns="http://www.w3.org/2000/svg" width="80.99" height="80.99" viewBox="0 0 80.99 80.99"><defs><style>.a{fill:#ec2935;}.b{fill:#ab1922;}.c{fill:#fff;}</style></defs><circle class="a" cx="40.495" cy="40.495" r="40.495" transform="translate(0 0)"/><path class="b" d="M188.8,186.491l20.822,20.822a40.469,40.469,0,0,0,30.02-39.09v-1.15L223.291,152Z" transform="translate(-158.652 -127.728)"/><g transform="translate(13.605 19.992)"><path class="c" d="M113.112,217.293a4.783,4.783,0,0,1,0,6.643l-3.7,3.7a4.783,4.783,0,0,1-6.643,0L86.541,211.289a4.783,4.783,0,0,1,0-6.643l3.7-3.7a4.783,4.783,0,0,1,6.643,0Z" transform="translate(-85.2 -187.72)"/><path class="c" d="M193.845,126.541a4.783,4.783,0,0,1,6.643,0l3.7,3.7a4.783,4.783,0,0,1,0,6.643l-28.1,27.976a4.783,4.783,0,0,1-6.643,0l-3.7-3.7a4.783,4.783,0,0,1,0-6.643Z" transform="translate(-151.753 -125.2)"/></g></svg>