<svg xmlns="http://www.w3.org/2000/svg" width="69.164" height="67.12" viewBox="0 0 69.164 67.12"><defs><style>.a{fill:#6a6e84;}.b{fill:#2360dd;}</style></defs><g transform="translate(0 -7.194)"><g transform="translate(0 7.194)"><path class="a" d="M21.207,353.762a.992.992,0,0,0-1.35-.355l-2.472,1.435v-2.856a.98.98,0,1,0-1.961,0v2.856l-2.472-1.435a.987.987,0,1,0-.995,1.7l2.486,1.449-2.486,1.449a.987.987,0,1,0,.995,1.7l2.472-1.435v2.856a.98.98,0,1,0,1.961,0V358.28l2.472,1.435a.987.987,0,1,0,.995-1.7l-2.486-1.449,2.486-1.449A.983.983,0,0,0,21.207,353.762Z" transform="translate(-9.841 -302.158)"/><path class="a" d="M143.1,359.26a.992.992,0,0,0,1.35.355l2.472-1.435v2.856a.98.98,0,1,0,1.961,0V358.18l2.472,1.435a.987.987,0,1,0,.995-1.7l-2.486-1.449,2.486-1.449a.987.987,0,1,0-.995-1.7l-2.472,1.435v-2.856a.98.98,0,0,0-1.961,0v2.856l-2.472-1.421a.987.987,0,1,0-.995,1.7l2.486,1.449-2.486,1.435A.992.992,0,0,0,143.1,359.26Z" transform="translate(-122.657 -302.072)"/><path class="a" d="M131.5,457.559v1.733a.758.758,0,0,0,.753.753h11.636a.758.758,0,0,0,.753-.753v-1.733a.758.758,0,0,0-.753-.753H132.253A.749.749,0,0,0,131.5,457.559Z" transform="translate(-112.817 -392.926)"/><path class="b" d="M164.663,23.379h-.085V19.514A12.264,12.264,0,0,0,152.374,7.2,12.033,12.033,0,0,0,140.567,19.2v.369a1.013,1.013,0,0,0,1.009,1.009H144.8a1.013,1.013,0,0,0,1.009-1.009v-.114a6.929,6.929,0,0,1,6.322-7,6.762,6.762,0,0,1,7.189,6.735v4.177h-9.946v.014h-9.193a3.17,3.17,0,0,0-3.083,3.154V44.009a3.171,3.171,0,0,0,3.168,3.168h24.381a3.171,3.171,0,0,0,3.168-3.168V26.547A3.15,3.15,0,0,0,164.663,23.379ZM154.348,36.066a.683.683,0,0,0-.313.639c.014,1.279.014,2.557,0,3.85h0a1.348,1.348,0,0,1-.725,1.293,1.5,1.5,0,0,1-2.245-1.293V36.692a.67.67,0,0,0-.284-.611,2.92,2.92,0,0,1-.966-3.609,2.987,2.987,0,0,1,5.712,1.179A2.706,2.706,0,0,1,154.348,36.066Z" transform="translate(-117.621 -7.194)"/><path class="a" d="M262.9,457.559v1.733a.758.758,0,0,0,.753.753h11.636a.758.758,0,0,0,.753-.753v-1.733a.758.758,0,0,0-.753-.753H263.653A.758.758,0,0,0,262.9,457.559Z" transform="translate(-225.547 -392.926)"/><path class="a" d="M274.5,359.26a.992.992,0,0,0,1.35.355l2.472-1.435v2.856a.98.98,0,1,0,1.961,0V358.18l2.472,1.435a.987.987,0,0,0,.995-1.7l-2.486-1.449,2.486-1.449a.987.987,0,1,0-.995-1.7l-2.472,1.435v-2.856a.98.98,0,0,0-1.961,0v2.856l-2.472-1.435a.987.987,0,1,0-.995,1.7l2.486,1.449-2.486,1.449A.992.992,0,0,0,274.5,359.26Z" transform="translate(-235.388 -302.072)"/><path class="a" d="M406.689,456.806H395.053a.758.758,0,0,0-.753.753v1.733a.758.758,0,0,0,.753.753h11.636a.758.758,0,0,0,.753-.753v-1.733A.758.758,0,0,0,406.689,456.806Z" transform="translate(-338.278 -392.926)"/><path class="a" d="M.753,460.045H12.389a.758.758,0,0,0,.753-.753v-1.733a.758.758,0,0,0-.753-.753H.753a.758.758,0,0,0-.753.753v1.733A.758.758,0,0,0,.753,460.045Z" transform="translate(0 -392.926)"/><path class="a" d="M405.964,359.26a.992.992,0,0,0,1.35.355l2.472-1.435v2.856a.98.98,0,0,0,1.961,0V358.18l2.472,1.435a.987.987,0,0,0,.995-1.7l-2.486-1.449,2.486-1.449a.987.987,0,1,0-.995-1.7l-2.472,1.435v-2.856a.98.98,0,0,0-1.961,0v2.856l-2.472-1.435a.987.987,0,1,0-.995,1.7l2.486,1.449-2.486,1.449A.98.98,0,0,0,405.964,359.26Z" transform="translate(-348.167 -302.072)"/></g></g></svg>