<svg xmlns="http://www.w3.org/2000/svg" width="43.181" height="50.024" viewBox="0 0 43.181 50.024"><defs><style>.a{fill:#ec2935;}.b{fill:#2360dd;}</style></defs><g transform="translate(-34.88)"><path class="a" d="M93.3,15.463a10.681,10.681,0,1,1,21.362,0V20.5h4.782V15.463a15.463,15.463,0,1,0-30.926,0V20.5H93.3Z" transform="translate(-48.379)"/><path class="b" d="M76.1,239.02H36.842a1.961,1.961,0,0,0-1.962,1.962v22.656a1.961,1.961,0,0,0,1.962,1.962H76.1a1.961,1.961,0,0,0,1.962-1.962V240.982A1.961,1.961,0,0,0,76.1,239.02ZM57.942,260.376a1.471,1.471,0,1,1-2.943,0v-.13a1.471,1.471,0,0,1,2.943,0Zm.2-7.071a.28.28,0,0,0-.2.26v1.3a1.471,1.471,0,0,1-2.943,0v-1.3a3.217,3.217,0,0,1,2.229-3.057,2.437,2.437,0,1,0-3.195-2.316,1.471,1.471,0,1,1-2.943,0,5.379,5.379,0,1,1,7.051,5.113Z" transform="translate(0 -215.576)"/></g></svg>