<svg xmlns="http://www.w3.org/2000/svg" width="24.126" height="25.889" viewBox="0 0 24.126 25.889"><defs><style>.a{fill:#ec2935;}</style></defs><g transform="translate(0)"><g transform="translate(0 14.582)"><path class="a" d="M29.5,288.389c-7.779,0-12.063,3.68-12.063,10.362a.945.945,0,0,0,.945.945H40.621a.945.945,0,0,0,.945-.945C41.566,292.069,37.282,288.389,29.5,288.389Zm-10.139,9.417c.372-5,3.778-7.527,10.139-7.527s9.767,2.531,10.139,7.527Z" transform="translate(-17.44 -288.389)"/></g><g transform="translate(5.795)"><path class="a" d="M138.317,0a6.192,6.192,0,0,0-6.268,6.393,6.289,6.289,0,1,0,12.535,0A6.193,6.193,0,0,0,138.317,0Zm0,11.307a4.674,4.674,0,0,1-4.378-4.913,4.3,4.3,0,0,1,4.378-4.5,4.344,4.344,0,0,1,4.378,4.5A4.674,4.674,0,0,1,138.317,11.307Z" transform="translate(-132.049)"/></g></g></svg>