<svg xmlns="http://www.w3.org/2000/svg" width="57.181" height="66.242" viewBox="0 0 57.181 66.242"><defs><style>.a{fill:#ec2935;}.b{fill:#2360dd;}.c{fill:#fff;}</style></defs><g transform="translate(-158.909 -162)"><g transform="translate(124.029 162)"><path class="a" d="M94.852,20.477a14.144,14.144,0,1,1,28.288,0v6.672h6.332V20.477a20.476,20.476,0,1,0-40.952,0v6.672h6.332Z" transform="translate(-46.673)"/><path class="b" d="M89.464,239.02H37.478a2.6,2.6,0,0,0-2.6,2.6v30a2.6,2.6,0,0,0,2.6,2.6H89.464a2.6,2.6,0,0,0,2.6-2.6v-30A2.6,2.6,0,0,0,89.464,239.02ZM65.419,267.3a1.948,1.948,0,1,1-3.9,0v-.173a1.948,1.948,0,1,1,3.9,0Zm.266-9.364a.37.37,0,0,0-.266.344v1.725a1.948,1.948,0,1,1-3.9,0v-1.725a4.26,4.26,0,0,1,2.952-4.049,3.227,3.227,0,1,0-4.23-3.067,1.948,1.948,0,0,1-3.9,0,7.123,7.123,0,1,1,9.338,6.771Z" transform="translate(0 -207.974)"/></g><rect class="b" width="48" height="29" transform="translate(162 195)"/><g transform="translate(174.815 144.718)"><path class="c" d="M25.6,59.693,11.686,73.6a2.64,2.64,0,0,1-3.732,0L.772,66.422A2.639,2.639,0,0,1,4.5,62.689L9.82,68.005,21.865,55.961A2.639,2.639,0,0,1,25.6,59.693Z"/></g></g></svg>