<svg xmlns="http://www.w3.org/2000/svg" version="1.1" xmlns:xlink="http://www.w3.org/1999/xlink" xmlns:svgjs="http://svgjs.com/svgjs" viewBox="0 0 50 50" width="50" height="50"><g transform="matrix(2.0833333333333335,0,0,2.0833333333333335,0,0)"><path d="M21 16.5L19.5 23.5" fill="none" stroke="#245be2" stroke-linecap="round" stroke-linejoin="round"></path><path d="M4.5 23.5L3 16.5" fill="none" stroke="#245be2" stroke-linecap="round" stroke-linejoin="round"></path><path d="M1 16.5L23 16.5" fill="none" stroke="#245be2" stroke-linecap="round" stroke-linejoin="round"></path><path d="M6.5,14.5V14a5.5,5.5,0,1,1,11,0v.5" fill="none" stroke="#245be2" stroke-linecap="round" stroke-linejoin="round"></path><path d="M11.995 11L11.995 14" fill="none" stroke="#245be2" stroke-linecap="round" stroke-linejoin="round"></path><path d="M9.2,2.1a5.4,5.4,0,0,0,3.884,1.65,5.4,5.4,0,0,0,2.138-.44" fill="none" stroke="#245be2" stroke-linecap="round" stroke-linejoin="round"></path><path d="M8.750 3.750 A3.250 3.250 0 1 0 15.250 3.750 A3.250 3.250 0 1 0 8.750 3.750 Z" fill="none" stroke="#245be2" stroke-linecap="round" stroke-linejoin="round"></path></g></svg>