<svg xmlns="http://www.w3.org/2000/svg" version="1.1" xmlns:xlink="http://www.w3.org/1999/xlink" xmlns:svgjs="http://svgjs.com/svgjs" viewBox="0 0 50 50" width="50" height="50"><g transform="matrix(2.0833333333333335,0,0,2.0833333333333335,0,0)"><path d="M17 7.02L20.108 3.934" fill="none" stroke="#245be2" stroke-linecap="round" stroke-linejoin="round"></path><path d="M19.500 2.500 A2.000 2.000 0 1 0 23.500 2.500 A2.000 2.000 0 1 0 19.500 2.500 Z" fill="none" stroke="#245be2" stroke-linecap="round" stroke-linejoin="round"></path><path d="M17.962 17.979L20.077 20.107" fill="none" stroke="#245be2" stroke-linecap="round" stroke-linejoin="round"></path><path d="M19.510 21.500 A2.000 2.000 0 1 0 23.510 21.500 A2.000 2.000 0 1 0 19.510 21.500 Z" fill="none" stroke="#245be2" stroke-linecap="round" stroke-linejoin="round"></path><path d="M7 7.02L3.893 3.934" fill="none" stroke="#245be2" stroke-linecap="round" stroke-linejoin="round"></path><path d="M0.500 2.500 A2.000 2.000 0 1 0 4.500 2.500 A2.000 2.000 0 1 0 0.500 2.500 Z" fill="none" stroke="#245be2" stroke-linecap="round" stroke-linejoin="round"></path><path d="M6.039 17.979L3.923 20.107" fill="none" stroke="#245be2" stroke-linecap="round" stroke-linejoin="round"></path><path d="M0.490 21.500 A2.000 2.000 0 1 0 4.490 21.500 A2.000 2.000 0 1 0 0.490 21.500 Z" fill="none" stroke="#245be2" stroke-linecap="round" stroke-linejoin="round"></path><path d="M16.5 11.5L19.5 11.5" fill="none" stroke="#245be2" stroke-linecap="round" stroke-linejoin="round"></path><path d="M19.500 11.500 A2.000 2.000 0 1 0 23.500 11.500 A2.000 2.000 0 1 0 19.500 11.500 Z" fill="none" stroke="#245be2" stroke-linecap="round" stroke-linejoin="round"></path><path d="M7.5 11.5L4.5 11.5" fill="none" stroke="#245be2" stroke-linecap="round" stroke-linejoin="round"></path><path d="M0.500 11.500 A2.000 2.000 0 1 0 4.500 11.500 A2.000 2.000 0 1 0 0.500 11.500 Z" fill="none" stroke="#245be2" stroke-linecap="round" stroke-linejoin="round"></path><path d="M7.51,16.5a4.5,4.5,0,0,1,9,0Z" fill="none" stroke="#245be2" stroke-linecap="round" stroke-linejoin="round"></path><path d="M9.260 8.250 A2.750 2.750 0 1 0 14.760 8.250 A2.750 2.750 0 1 0 9.260 8.250 Z" fill="none" stroke="#245be2" stroke-linecap="round" stroke-linejoin="round"></path></g></svg>