<svg xmlns="http://www.w3.org/2000/svg" version="1.1" xmlns:xlink="http://www.w3.org/1999/xlink" xmlns:svgjs="http://svgjs.com/svgjs" viewBox="0 0 50 50" width="50" height="50"><g transform="matrix(2.0833333333333335,0,0,2.0833333333333335,0,0)"><path d="M3.113,9.253A4,4,0,0,1,.5,5.5v-1a1,1,0,0,1,1-1H4.8" fill="none" stroke="#245be2" stroke-linecap="round" stroke-linejoin="round"></path><path d="M20.887,9.253A4,4,0,0,0,23.5,5.5v-1a1,1,0,0,0-1-1H19.2" fill="none" stroke="#245be2" stroke-linecap="round" stroke-linejoin="round"></path><path d="M12.479,3.287,13.507,5.5h2a.489.489,0,0,1,.345.855L14.116,8.065l.962,2.209a.524.524,0,0,1-.746.655L12.008,9.622,9.684,10.929a.524.524,0,0,1-.746-.655L9.9,8.065,8.164,6.357A.489.489,0,0,1,8.508,5.5h2l1.029-2.215A.53.53,0,0,1,12.479,3.287Z" fill="none" stroke="#245be2" stroke-linecap="round" stroke-linejoin="round"></path><path d="M12 15.5L12 20" fill="none" stroke="#245be2" stroke-linecap="round" stroke-linejoin="round"></path><path d="M6,23.5C6,21.567,8.686,20,12,20s6,1.567,6,3.5Z" fill="none" stroke="#245be2" stroke-linecap="round" stroke-linejoin="round"></path><path d="M18.6,9.53c-.449,4.492-5.838,7.865-10.258,4.776A7.312,7.312,0,0,1,5.351,9.013l-.8-7.963a.5.5,0,0,1,.5-.55h13.9a.5.5,0,0,1,.5.55Z" fill="none" stroke="#245be2" stroke-linecap="round" stroke-linejoin="round"></path></g></svg>