<svg xmlns="http://www.w3.org/2000/svg" version="1.1" xmlns:xlink="http://www.w3.org/1999/xlink" xmlns:svgjs="http://svgjs.com/svgjs" viewBox="0 0 50 50" width="50" height="50"><g transform="matrix(2.0833333333333335,0,0,2.0833333333333335,0,0)"><path d="M0.441 19.5L23.441 19.5" fill="none" stroke="#245be2" stroke-linecap="round" stroke-linejoin="round"></path><path d="M4.441,19.5V15a.5.5,0,0,0-.5-.5h-2a.5.5,0,0,0-.5.5v4.5" fill="none" stroke="#245be2" stroke-linecap="round" stroke-linejoin="round"></path><path d="M10.441,19.5V10a.5.5,0,0,0-.5-.5h-2a.5.5,0,0,0-.5.5v9.5" fill="none" stroke="#245be2" stroke-linecap="round" stroke-linejoin="round"></path><path d="M16.441,19.5V12a.5.5,0,0,0-.5-.5h-2a.5.5,0,0,0-.5.5v7.5" fill="none" stroke="#245be2" stroke-linecap="round" stroke-linejoin="round"></path><path d="M22.441,19.5V5a.5.5,0,0,0-.5-.5h-2a.5.5,0,0,0-.5.5V19.5" fill="none" stroke="#245be2" stroke-linecap="round" stroke-linejoin="round"></path></g></svg>