<svg xmlns="http://www.w3.org/2000/svg" version="1.1" xmlns:xlink="http://www.w3.org/1999/xlink" xmlns:svgjs="http://svgjs.com/svgjs" viewBox="0 0 50 50" width="50" height="50"><g transform="matrix(2.0833333333333335,0,0,2.0833333333333335,0,0)"><path d="M23.503 7.5L0.504 7.5" fill="none" stroke="#245be2" stroke-linecap="round" stroke-linejoin="round"></path><path d="M7.482 7.501L12.004 0.5 16.526 7.501" fill="none" stroke="#245be2" stroke-linecap="round" stroke-linejoin="round"></path><path d="M5.521 0.559L12.004 23.5" fill="none" stroke="#245be2" stroke-linecap="round" stroke-linejoin="round"></path><path d="M18.487 0.559L12.004 23.5" fill="none" stroke="#245be2" stroke-linecap="round" stroke-linejoin="round"></path><path d="M11.609,23.3a.486.486,0,0,0,.79,0L23.361,7.95a.769.769,0,0,0-.008-.9L18.654.7a.5.5,0,0,0-.4-.2H5.756a.5.5,0,0,0-.4.2L.655,7.046a.769.769,0,0,0-.008.9Z" fill="none" stroke="#245be2" stroke-linecap="round" stroke-linejoin="round"></path></g></svg>