<svg xmlns="http://www.w3.org/2000/svg" version="1.1" xmlns:xlink="http://www.w3.org/1999/xlink" xmlns:svgjs="http://svgjs.com/svgjs" viewBox="0 0 50 50" width="50" height="50"><g transform="matrix(2.0833333333333335,0,0,2.0833333333333335,0,0)"><path d="M13.500 18.500 A5.000 5.000 0 1 0 23.500 18.500 A5.000 5.000 0 1 0 13.500 18.500 Z" fill="none" stroke="#245be2" stroke-linecap="round" stroke-linejoin="round"></path><path d="M18.5 16.5L18.5 20.5" fill="none" stroke="#245be2" stroke-linecap="round" stroke-linejoin="round"></path><path d="M16.5 18.5L20.5 18.5" fill="none" stroke="#245be2" stroke-linecap="round" stroke-linejoin="round"></path><path d="M.5,13.5a7.089,7.089,0,0,1,.565-2.7c.4-.8,2.063-1.35,4.153-2.124.565-.209.472-1.684.222-1.96A4.167,4.167,0,0,1,4.355,3.485,2.725,2.725,0,0,1,7,.5,2.725,2.725,0,0,1,9.645,3.485,4.167,4.167,0,0,1,8.56,6.717c-.25.276-.343,1.751.222,1.96,2.09.774,3.754,1.327,4.153,2.124a7.089,7.089,0,0,1,.565,2.7Z" fill="none" stroke="#245be2" stroke-linecap="round" stroke-linejoin="round"></path><path d="M10.912.737A2.573,2.573,0,0,1,12,.5a2.725,2.725,0,0,1,2.645,2.985A4.167,4.167,0,0,1,13.56,6.717c-.25.276-.343,1.751.222,1.96,2.09.774,3.754,1.327,4.153,2.124.024.049.048.1.07.15" fill="none" stroke="#245be2" stroke-linecap="round" stroke-linejoin="round"></path></g></svg>