<?xml version="1.0" encoding="utf-8"?>
<!-- Generator: Adobe Illustrator 24.0.3, SVG Export Plug-In . SVG Version: 6.00 Build 0)  -->
<svg version="1.1" id="Layer_1" xmlns="http://www.w3.org/2000/svg" xmlns:xlink="http://www.w3.org/1999/xlink" x="0px" y="0px"
	 viewBox="0 0 1743.5 581.7" style="enable-background:new 0 0 1743.5 581.7;" xml:space="preserve">
<style type="text/css">
	.st0{fill:#040712;}
	.st1{fill:url(#SVGID_1_);}
</style>
<g>
	<g>
		<path class="st0" d="M815,506.5c0.9-3.6,0.3-6.4-2.4-8.6s-7.5-3.3-15.3-3.3c-11.4,0-18.9,3.3-21.4,10c-1.3,3.4,0.4,5.4,5.3,6.3
			c8.1,1.4,32.7,5.3,42,7c17.8,3.3,26.4,11,19.7,29c-12.8,34.6-57.8,34.9-71.8,34.9c-34.6,0-57.3-6.1-48.7-34.6h40.3
			c-1,3.9-1,7,1.7,9.1c2.5,2.1,7.6,3.4,16.5,3.4c8.6,0,18.6-2,21.8-10.7c2-5.4-1.6-7.3-12.7-9.1l-32.2-5.1
			c-19.8-3.1-24-13.7-18.4-28.9c5-13.4,20.3-32.4,65-32.4c37,0,56,8.9,49.2,33H815z"/>
		<path class="st0" d="M896.9,476.6h75.4c27.7,0,32.1,14.7,24.9,34c-6.2,16.9-21.1,34-48.5,34h-43l-12.7,34h-34L896.9,476.6z
			 M913.5,523.5h30.3c9.4,0,15-3.9,18.3-12.9c3.4-9,0.6-12.9-8.8-12.9H923L913.5,523.5z"/>
		<path class="st0" d="M1100.4,473.5c36,0,62.1,11.9,46.4,54.1c-15.7,42.3-50.6,54.1-86.6,54.1s-62-11.9-46.3-54.1
			C1029.7,485.3,1064.4,473.5,1100.4,473.5z M1068.7,558.9c18.3,0,34.1-9.9,42.1-31.3c7.9-21.3-0.6-31.3-18.9-31.3
			c-18.1,0-34,10-42,31.3C1042,549,1050.6,558.9,1068.7,558.9z"/>
		<path class="st0" d="M1195.3,476.6h81.7c25,0,29.9,11.4,23.5,28.4c-5,13.6-14.9,21-24.8,23.3l-0.2,0.3c5.7,2.1,8.8,7.3,5.5,18.3
			c-5.9,20.1-7.6,26.6-5.3,31.7h-37.3c-0.2-4.4,1.9-10.4,3.7-15.1c5.8-16,1.7-18.9-6.9-18.9h-31.1l-12.7,34h-34L1195.3,476.6z
			 M1212.6,521.7h32.7c8.3,0,14.2-4.3,16.8-11.3c2.5-6.7-0.3-11-8.5-11h-32.7L1212.6,521.7z"/>
		<path class="st0" d="M1331.5,476.6h108.9l-8.5,22.9h-37.4l-29.4,79.1h-34l29.4-79.1H1323L1331.5,476.6z"/>
		<path class="st0" d="M1524.2,506.5c0.9-3.6,0.3-6.4-2.4-8.6c-2.7-2.1-7.5-3.3-15.3-3.3c-11.4,0-18.9,3.3-21.4,10
			c-1.3,3.4,0.4,5.4,5.3,6.3c8.1,1.4,32.7,5.3,42,7c17.8,3.3,26.4,11,19.7,29c-12.8,34.6-57.8,34.9-71.8,34.9
			c-34.6,0-57.3-6.1-48.7-34.6h40.3c-1,3.9-1,7,1.7,9.1c2.5,2.1,7.6,3.4,16.5,3.4c8.6,0,18.6-2,21.8-10.7c2-5.4-1.6-7.3-12.7-9.1
			l-32.2-5.1c-19.8-3.1-24-13.7-18.4-28.9c5-13.4,20.3-32.4,65-32.4c37,0,56,8.9,49.2,33H1524.2z"/>
	</g>
	<g>
		<linearGradient id="SVGID_1_" gradientUnits="userSpaceOnUse" x1="0" y1="221.5117" x2="1743.5023" y2="221.5117">
			<stop  offset="7.238898e-02" style="stop-color:#FC2528"/>
			<stop  offset="0.9421" style="stop-color:#245BE2"/>
		</linearGradient>
		<path class="st1" d="M1387.5,120h266.3l89.7-112c0,0-330.5,0-330.7,0c-132.4,0-252.4,62.3-281.1,177.6l-99.9-141.3l0,0
			C1017.1,24,992.6,0,945.4,0c-48.3,0-71.6,26-87.4,45.7l0,0L589.9,380.5l-48.6-68.8c73.5-15.1,142.9-57.3,152.9-154.6
			C705,51.5,608.9,8.5,494.7,8v0H263.3l-89.7,112h309.3v0c0.3,0,0.6,0,1,0h0c44.4,0,88.2,8.2,86.5,43.4c-1.9,39-36.5,56.6-86.6,56.6
			c-0.3,0-0.6,0-1,0v0.1H178.7v0h-0.1L0,442.9h158.2L247,332h150.5l78.4,110.9h64h94.2h64l243.1-303.3L1076.5,331H857.3l-89.6,111.8
			v0.2H1597l89.7-112h-341.3l0,0c-58.3,0-102.1-50.5-90.8-108.7C1266.1,164,1329.2,120,1387.5,120L1387.5,120z"/>
	</g>
</g>
</svg>
