<?xml version="1.0" encoding="utf-8"?>
<!-- Generator: Adobe Illustrator 19.0.0, SVG Export Plug-In . SVG Version: 6.00 Build 0)  -->
<svg version="1.1" id="Layer_1" xmlns="http://www.w3.org/2000/svg" xmlns:xlink="http://www.w3.org/1999/xlink" x="0px" y="0px"
	 viewBox="0 0 112.2 89.6" style="enable-background:new 0 0 112.2 89.6;" xml:space="preserve">
<style type="text/css">
	.st0{fill:#FF261C;}
	.st1{fill:#13DBEA;}
	.st2{display:none;fill:#FFFFFF;}
	.st3{fill:#FFFFFF;}
	.st4{display:none;}
	.st5{display:inline;fill:#FF261C;}
	.st6{display:inline;fill:#13DBEA;}
	.st7{display:inline;fill:#FFFFFF;}
	.st8{display:inline;}
</style>
<g id="interception">
	<path class="st0" d="M48.8,50.2c2.2,0.2,4.3,0.4,6.5,0.7c1.9-0.2,3.5,1.3,3.5,3c0,1.7-1.5,3.2-3.4,3.1c-3.5-0.1-7.1-0.2-10.6-0.3
		c-1.4,3-3.2,6.4-5.5,9.8c-1.6,2.4-3.2,4.6-4.7,6.6c-4.8,1.6-9.6,3.2-14.4,4.8c-1.5,0.1-3-0.7-3.7-2c-0.8-1.5-0.5-3.5,0.8-4.8
		c4.6-1.6,9.1-3.1,13.7-4.7c-0.1-0.4-0.2-1-0.6-1.3c-0.6-0.4-1.5,0.2-2.8,0.8c-0.8,0.3-1.9,0.8-3.4,1.1c-4.8,0.1-9.6,0.2-14.4,0.3
		c-2.6-0.1-4.4-2.2-4.2-4.2c0.1-1.5,1.4-2.9,3.1-3.4c4.2,0.3,7.7,0,10.2-0.2c5.4-0.6,7.9-1,10.2-2.8c1.5-1.2,2.7-2.7,3.7-4.8
		c0.6-1.3,1.4-2.2,2.1-3.4c1.9-3.3,2.4-4.5,3.9-5.7c0.9-0.7,1.7-1.2,2.3-1.4c4.9-0.1,9.8-0.2,14.7-0.3c0.5-0.8,0.9-1.7,1.4-2.5
		c2.5-0.5,5.4-1.1,8.8-1.8c6-1.2,7.3-1.4,9.4-1.2c1.6,0.2,6,0.7,8.5,4.1c0.5,0.6,1.5,2.1,1.4,4c-0.1,1.3-0.9,2.6-2.7,5.3
		c-1.3,1.9-1.9,2.6-2.4,4.1c-0.4,1.1-0.5,2.2-0.6,2.8c-0.8,0.1-1.5,0.2-2.3,0.3c-0.6,1.1-1.1,2.5-0.6,3.1c0.3,0.3,0.8,0.3,1.1,0.3
		c2.1,0.1,4.6,2.4,5,4.3c0.3,1.4-0.4,2.5-3.7,6.7c-1.5,2-3.5,4.4-5.8,7.1c-1.5,1.8-4.3,1.8-5.7,0.3c-1.3-1.4-1.2-4,0.5-5.4
		c1.5-2.2,3.1-4.3,4.6-6.5c-2.1-1.1-4.2-2.3-6.2-3.4c-1.1,1.7-2.4,3.5-4,5.4c-5.2,6-10.9,9.7-15.3,11.9c-1.5,0.9-3.4,0.6-4.5-0.6
		c-1.2-1.4-1.1-3.9,0.7-5.2c2.7-2.2,5.1-4.1,7-5.6c4.9-3.9,6.3-4.8,7.9-7.1c1.5-2.1,3.3-4.5,3.1-7.9c-0.2-3.1-2-5.3-2.8-6.2
		c-2.5,0.1-4.9,0.2-7.4,0.3C50.3,48.5,49.5,49.4,48.8,50.2z"/>
	<path class="st1" d="M51.9,36.6c-4.3-0.1-8-3.7-7.9-7.9c0.1-4.1,4.1-8,8.1-7.9c4.2,0.1,7.9,4,7.9,8.1
		C59.9,33.1,56.2,36.6,51.9,36.6z"/>
	<path class="st1" d="M86.3,18.9c4,0.2,7.8,4.3,7.6,8.4c-0.2,4.2-4,7.6-8.4,7.4c-4.3-0.2-7.9-4-7.6-8.2
		C78.2,22.3,82.2,18.7,86.3,18.9z"/>
	<path class="st0" d="M88.1,45.1c4.4,0.6,8.9,1.1,13.3,1.7c0.9,0.7,1.3,1.8,1.1,2.8c-0.2,1.1-1.1,2-2.3,2.3c-5.1,0-10.2,0-15.3,0
		C86,49.7,87.1,47.4,88.1,45.1z"/>
	<path class="st2" d="M77.8,53.3c-0.9,1.3-3,1.3-3.4,1.3c-1.1,0-2-0.4-2.5-0.7c-0.6-0.1-2.6-0.5-4.2-2.3c-1.2-1.3-1.6-2.7-1.7-3.4
		c0.4,0,2-0.1,3.3-1.4c1.5-1.5,1.6-3.4,1.6-3.7c1,0.4,2.3,1.1,3.7,2.3c1,0.8,2.3,2,3.1,4C77.9,50.5,78.6,52.1,77.8,53.3z"/>
	<path class="st3" d="M78.5,54.2c-5.9,1.8-9.2-0.5-10.4-7.1C74,45,78,47.7,78.5,54.2z"/>
</g>
<g id="sack" class="st4">
	<path class="st5" d="M17.4,50.8c0.3,2.3,0.5,4.7,0.8,7c0,0.3,0.1,0.9-0.2,1.6c-0.6,1.2-1.9,1.4-2.1,1.4c-3.8,2.6-7.6,5.2-11.4,7.8
		c-1.4,0.3-2.8-0.2-3.7-1.3c-0.9-1.1-1.1-2.7-0.5-4c3-2.8,6-5.5,9.1-8.3c0.1-4.6-0.3-7.9-0.7-10.2C8.6,44,8.3,42.6,9,41.1
		c0.2-0.4,1-1.8,3.7-2.9c1.7-0.7,3.4-1,10.3-0.8c5.2,0.1,6.1,0.3,7,0.5c2.2,0.6,4.7,1.3,6.4,3.4c1.2,1.5,0.8,2.2,2.3,8.8
		c0.8,3.3,1.3,5.1,2.8,6.6c0.7,0.8,1.7,1.5,2.3,1.8c1.6,1.1,3,1.9,4,2.3c-0.2,0.8-0.6,2-1.3,3.2c-0.5,0.7-2.3,3.7-5.8,4.4
		c-2.9,0.6-5.4-0.6-6.9-1.4c-1.5-0.8-2.6-1.7-3.3-2.3c1.1-1.8,2.2-3.6,3.3-5.4c-0.3-2.7-0.7-5.5-1-8.2C27.6,51,22.5,50.9,17.4,50.8z
		"/>
	<path class="st5" d="M93.8,50.8c-4.9,0-9.7,0-14.6,0c-0.9,4.5-2.1,9.2-3.8,14c-0.2,0.7-0.5,1.5-0.8,2.2c-0.5,1.3-1.9,2.1-3.3,1.9
		c-1.5-0.2-2.7-1.6-2.7-3.2c0.5-2.4,2.7-12,5.2-21.1c0.4-1.5,1.2-4,3.4-5.7c1.5-1.1,3.5-1.6,5.9-1.5c4,0.2,8,0,12,0.1
		c5.5,0.2,7.5,2.4,7.4,7.8c0,1,0.2,2.1-0.2,3c-1,2.4-1.2,4.4-0.7,6.1c0.3,1,0.8,1.7,5.8,5.9c1.5,1.3,2.8,2.3,3.8,3.1
		c1,1.2,1.1,2.9,0.2,4.1c-0.9,1.3-2.8,1.8-4.3,1c-4.3-3.1-8.6-6.2-12.9-9.2c-0.2-0.2-0.6-0.5-0.8-1c-0.4-0.7-0.6-1.7-0.2-4.9
		C93.4,52.8,93.6,51.9,93.8,50.8z"/>
	<path class="st6" d="M53.5,35.7c-0.1,4.1-4.1,7.7-8.3,7.7c-4.4-0.1-7.8-3.7-7.7-8.1c0.1-4.3,4-8,8.1-7.8
		C49.7,27.6,53.6,31.8,53.5,35.7z"/>
	<path class="st6" d="M73.7,35.5c0,4.2-3.4,7.8-7.7,7.9c-4.4,0.1-8-3.5-8-7.8c0-4,3.9-8.1,8-8.1C70.3,27.4,73.8,31.2,73.7,35.5z"/>
	<path class="st5" d="M20.9,53.1c3.1-0.1,6.3-0.1,9.4-0.2c0.3,1.3,0.6,3.4-0.2,5.5c-0.5,1.4-1.2,2.1-3.3,4.8
		c-0.9,1.1-2.2,2.8-3.7,4.9c-1.4,1.2-3.4,1.2-4.7,0.2c-1.1-0.9-1.6-2.4-1.2-3.9c1.1-2,2.2-4,3.3-6c0.9-0.8,1.1-1.4,1-1.8
		c-0.1-0.6-0.6-0.8-0.8-1.4C20.4,54.4,20.7,53.6,20.9,53.1z"/>
	<path class="st5" d="M91.3,53.3c-1.3,1.7-1.6,3-1.4,4.1c0.3,1.4,1.3,1.6,2.8,4.1c1,1.6,1.9,3.2,1.5,4.8c-0.2,0.7-0.7,1.4-1.7,2.1
		c-3.4,2.2-4.8-0.7-6.3-2.8c-1.5-2-2.8-4.1-4.1-6.3c-1.6-2.7-1.7-3.8-1.2-4.6c0.3-0.7,1-1,1.5-1.2C85.3,53.4,88.3,53.3,91.3,53.3z"
		/>
	<path class="st7" d="M33,64.4c1-2.6,1.8-3.1,2.2-3.1c0.5,0,0.6,0.6,1.6,1c1.1,0.4,2.1,0.1,2.3,0c0.2-0.1,1.2-0.4,1.8-1.3
		c0.6-0.8,0.4-1.4,0.8-1.6c0.4-0.3,1.4,0,3.6,2.2c-0.1,0.3-1.3,3.8-4.8,4.8C38.5,66.9,36.1,66.2,33,64.4z"/>
</g>
<g id="qb2" class="st4">
	<path class="st5" d="M37.4,34.6c3.4,6,9,4.5,14.4,3.7c5-0.8,7.9-0.8,9.7,0.6c1.2,1,1.7,2.3,2.5,8.9c0.5,4.3,0.8,8,0.9,10.8
		c2,2.2,4,4.5,5.9,7.1c0.7,0.9,1.4,1.8,2,2.7c0.9,4.2,1.8,8.4,2.7,12.5c-0.2,1.9-1.8,3.3-3.5,3.4c-1.5,0-2.9-0.9-3.4-2.4
		c-0.3-1.2-0.8-3-1.5-5.2c-0.9-3-1.4-4.4-1.9-5.5c-0.8-1.7-2.4-4.3-6.2-6.7c-0.6,2.7-1.2,5.5-1.7,8.2c-2.8,3.3-6.3,6.7-10.8,9.9
		c-0.9,0.7-1.9,1.3-2.8,1.9c-0.1,0-2.2,0.4-3.6-1.2c-1-1.1-1.3-2.7-0.7-4.1c2.8-2.7,4.8-4.5,5.7-5.3c3.2-3,3.8-3.5,4.5-4.7
		c1.4-2.5,1.6-4.9,1.8-7.2c0.2-2.1,0-3.8-0.1-5.7c-0.3-2.9-0.7-6.9-1.5-11.6c-1.2,0.5-3.9,1.6-7.5,1.1c-4.8-0.7-7.7-3.8-8.4-4.6
		c-1.4-1.3-2.7-1.8-3.6-2c-1.4-0.3-2.2,0-4-0.2c-1.6-0.1-3-0.6-4-1c-0.1-1.2-0.2-3.6,1-6.1c2.4-4.9,7.6-6.1,8.1-6.2
		c2.6-0.5,4.7,0,5.8,0.4c0.2,0.9,0.4,2,0.5,3.1C37.7,31.2,37.6,33.1,37.4,34.6z M25.1,36.3c7,0.7,9.6-1.3,10.1-7.8
		C29.2,26.8,25.6,29.5,25.1,36.3z"/>
	<path class="st6" d="M53.9,33.7c-4.3,0-8-3.6-7.9-7.9c0.1-4,4.1-8.1,8.1-8c4.4,0.1,8,3.8,7.8,8.2C61.8,30.2,58.2,33.7,53.9,33.7z"
		/>
	<path class="st5" d="M66.5,42.6c1.4,0.6,2.9,1.2,4.3,1.8c2.5-1.4,5-2.9,7.4-4.3c1.5-0.9,3.3-0.5,4.2,0.8c0.8,1.2,0.6,2.9-0.4,4
		c-3.1,2.2-6.3,4.3-9.4,6.5C72,51.4,69.8,51.5,68,50c-0.5-0.5-0.9-1-1.2-1.4C66.7,46.6,66.6,44.6,66.5,42.6z"/>
	<path class="st7" d="M25.1,36.3c0.5-6.7,4.1-9.5,10.1-7.8C34.6,35,32.1,37,25.1,36.3z"/>
</g>
<g id="run" class="st4">
	<path class="st5" d="M57.3,62.5c0.8,0.2,2.8,0.8,4.5,2.6c1.2,1.3,1.7,2.6,2,3.4c1.4,3.9,2.9,7.8,4.3,11.7c0.1,1.5-0.8,2.9-2.2,3.5
		c-1.5,0.6-3.3,0.1-4.3-1.2c-1.1-2.7-2.3-5.6-3.7-8.4c-0.5-1.1-1-2.2-1.6-3.3c-2.9-1.3-5.9-2.6-8.8-4c-0.7,1.6-1.7,3.6-3.3,5.6
		C43.1,74,42,75.1,41,75.9c-5.6-0.1-11.2-0.1-16.8-0.2c-1.6-0.6-2.6-2.1-2.5-3.8c0.1-1.7,1.3-3.2,3.1-3.6c4.3,0,8.5,0,12.8,0
		c1.9-3.1,3.7-6.1,5.6-9.2c0,0,0.1-0.1,0.2-0.2c0.7-1-1.2-3.4-2.3-5c-1-1.5-4.4-6.5-3.1-9.3c0.7-1.6,3.5-2.2,8.9-3.4
		c2.9-0.7,5.8-1.4,8.7-1.9c4-0.8,7.3,0.4,9.6,3.8c2.1,3.1,0.9,6-1,8.7C61.9,55.2,59.7,58.7,57.3,62.5z M46.1,48.5
		c2.6,8.2,3.6,9,9,7.8C54.6,50,52.1,47.8,46.1,48.5z"/>
	<path class="st6" d="M75.3,30.8c-0.1,4.3-3.9,7.7-8.2,7.6c-4.3-0.2-7.7-3.7-7.6-8c0.1-4.3,3.8-7.8,8.1-7.7
		C71.9,22.8,75.5,26.5,75.3,30.8z"/>
	<path class="st5" d="M69.3,50.3c0.1-2,0.2-4,0.4-6c5.3,0,10.6,0,15.9,0c1.5,0.3,2.5,1.5,2.6,2.9c0.1,1.5-1,2.9-2.6,3.2
		C80.1,50.4,74.7,50.4,69.3,50.3z"/>
	<path class="st7" d="M45.5,48.3c0.3-0.1,4-1.1,7,1.3c2.2,1.8,3.3,4.7,2.7,7.5c-0.9,0.1-2,0.2-3.2,0c-1-0.1-1.8-0.3-2.5-0.5
		C48.1,53.9,46.8,51.1,45.5,48.3z"/>
</g>
<g id="incomplete" class="st4">
	<path class="st5" d="M28,59.9c-5.3,0-10.6,0-15.9,0c-2.8,0-5.7-0.5-5.7-4c0-1.1,0.3-1.9,0.8-2.5c1-1.2,2.6-1.3,4.9-1.4
		c1-0.1,1.9,0,2.5,0c5.3-0.2,10.7-0.3,16-0.5c3.9-4.6,7.1-7.9,9.3-10c1.1-1,2.4-2.3,4.5-2.5c2.2-0.2,4.2,0.9,5.3,1.5
		c1.6,0.9,2.6,1.9,3,2.3c1.6,1.6,4.2,4,8.3,7.2c4-2.1,8-4.2,12-6.3c0.1,0,1.8,0.1,2.8,1.5c1,1.5,0.3,3.1,0.3,3.3
		c-4.1,2.5-8.2,5-12.3,7.5c-0.2,0.2-1.5,1.2-3.3,1c-1.7-0.1-2.8-1.3-3-1.5c-2.3-1.9-4.5-3.8-6.8-5.8c-2.3,2.2-5.2,5-8.5,8.3
		c-3,2.9-6.1,5.7-8.7,9c-0.2,0.3-1,1.3-2.3,2c-0.9,0.5-1.7,0.7-2.3,0.8c-4.5-0.1-9-0.2-13.5-0.3c-0.1-0.1-2-1.3-2-3.5
		c0-1.6,1-3.1,2.5-3.8c2.9,0,5.8,0,8.7,0c0.1,0,1.2,0.4,2.3-0.3C27.9,61.2,28,60,28,59.9z"/>
	<path class="st6" d="M52.1,21.1c4-0.1,8.1,3.8,8.3,7.8c0.2,4.4-3.3,8.2-7.5,8.4c-4.6,0.2-8.5-3.5-8.5-7.9
		C44.3,25,47.9,21.2,52.1,21.1z"/>
	<path class="st5" d="M54.6,41.4c4.8-2.4,9.5-4.8,14.3-7.3c1.6-0.4,3.3,0.3,4,1.8c0.6,1.2,0.4,2.7-0.5,3.8c-4,2.3-8,4.5-12,6.8
		C58.5,44.7,56.5,43.1,54.6,41.4z"/>
	<g class="st8">
		<path class="st0" d="M62.2,13.2c4.5,1.5,8.1,2.7,10.6,3.7c3.8,1.4,5,2,7.6,2.5c2.6,0.6,3.4,0.5,5.6,1.3c2.1,0.8,4.2,1.5,5.8,3.5
			c1.4,1.8,1.9,3.8,2.2,5.3c0.3,1.4,0.4,2.5,0.4,3.4c-0.8,0.2-2.1,0.4-3.6,0.5c-2.2,0.1-4.3,0.3-6.3-0.6c-1.8-0.8-2.8-2.1-4.4-4.2
			c-1.9-2.5-1.7-3.4-3.2-5.4c-1-1.3-2-2.3-5-4c-2.5-1.4-5.9-3.2-10-5.2c-0.7-0.5-1.4-0.9-2.1-1.4C60.6,12.9,61.4,13,62.2,13.2z
			 M91.5,30.7c-0.5-6.5-4.5-9.3-10.4-7.1C82.3,30.2,85.6,32.5,91.5,30.7z"/>
		<path class="st3" d="M91.5,30.7c-5.9,1.8-9.2-0.5-10.4-7.1C87.1,21.4,91.1,24.1,91.5,30.7z"/>
	</g>
</g>
<g id="Completion" class="st4">
	<path class="st5" d="M52.1,60.6c2,1.5,4,3,6,4.6c0.2,0.2,0.6,0.6,0.8,1.2c0.2,0.6,0.1,1.2,0,1.4c0,4.7,0.1,9.4,0.1,14
		c-0.4,1.5-1.7,2.6-3.1,2.8c-1.8,0.2-3.6-1-4.2-2.9c0-2.1-0.1-4.8-0.2-8.1c-0.1-1.6-0.1-2.4-0.6-3.2c-1.2-1.8-3.7-2.1-5.6-3.1
		c-1.4-0.7-2-0.6-2.5-0.4c-1.2,0.3-2.1,1.8-2.7,2.7c-0.5,0.8-1.3,1.9-2.5,3.2c-0.2,0.3-0.6,0.6-1.1,0.9c-0.7,0.4-1.3,0.6-1.7,0.6
		c-4.1,0.9-8.2,1.9-12.3,2.8c-1.4-0.3-2.6-1.3-3-2.7c-0.4-1.3-0.1-2.7,0.6-3.6c1-1.2,2.6-1.4,3.3-1.5c2.2-0.3,5.4-1.1,9.8-3.3
		c1.4-2.1,3.4-5.4,5.9-9.4c0.3-0.4,0.7-1.2,1.1-1.7c1.6-2.7,4-6.6,7.1-12.1c0.2-0.3,0.5-0.9,1.1-1.4c0.5-0.4,0.9-0.6,1.2-0.7
		c6.3,0,12.7,0,19,0.1c2.7-2,5.1-3.3,6.8-4.3c2-1.1,3.2-1.6,4.4-1.1c1.3,0.5,2.2,1.5,2.2,2.5c0,1-0.8,1.7-1.3,2.1
		c-4.6,3.9-6.8,6-10.9,7.1c-0.7,0.2-1.2,0.3-1.6,0.4c-2.8,0-5.6,0-8.4-0.1C57.3,51.9,54.7,56.3,52.1,60.6z"/>
	<path class="st6" d="M61.4,36.9c-4.2,0-8.1-3.9-8-7.9c0.1-4,4.2-7.9,8.2-7.9c4.1,0,7.8,3.8,7.8,8.1C69.3,33.5,65.8,36.9,61.4,36.9z
		"/>
	<path class="st5" d="M59.9,57.5c1.1-1.8,2.2-3.5,3.2-5.3c3.7,0,7.4,0,11.1,0c1.2,0.7,1.8,2.2,1.3,3.5c-0.5,1.2-1.8,2-3.1,1.8
		C68.3,57.5,64.1,57.5,59.9,57.5z"/>
	<g class="st8">
		<path class="st0" d="M51.3,0.6c4.4,1.8,7.8,3.3,10.3,4.4c3.7,1.7,4.9,2.3,7.4,3.1c2.6,0.8,3.4,0.7,5.5,1.6c2,0.9,4,1.8,5.5,3.9
			c1.3,1.9,1.6,3.9,1.9,5.5c0.2,1.4,0.2,2.6,0.2,3.4c-0.9,0.1-2.1,0.3-3.6,0.3c-2.2,0-4.3,0-6.3-1.1c-1.7-0.9-2.6-2.3-4.1-4.5
			c-1.7-2.6-1.4-3.5-2.8-5.6c-0.9-1.4-1.8-2.4-4.7-4.3c-2.4-1.6-5.7-3.6-9.6-5.8c-0.7-0.5-1.3-1-2-1.5C49.7,0.2,50.5,0.4,51.3,0.6z
			 M79.3,20.1c0-6.5-3.8-9.6-9.9-7.8C70.2,19,73.3,21.5,79.3,20.1z"/>
		<path class="st3" d="M79.3,20.1c-6,1.4-9.2-1.1-9.9-7.8C75.5,10.6,79.3,13.6,79.3,20.1z"/>
	</g>
</g>
</svg>
